<?xml version="1.0" standalone="no"?><!DOCTYPE svg PUBLIC "-//W3C//DTD SVG 1.1//EN" "http://www.w3.org/Graphics/SVG/1.1/DTD/svg11.dtd"><svg t="1714443312485" class="icon" viewBox="0 0 1024 1024" version="1.1" xmlns="http://www.w3.org/2000/svg" p-id="3651" width="500" height="500" xmlns:xlink="http://www.w3.org/1999/xlink"><path d="M157.805714 647.131429a27.428571 27.428571 0 0 1 36.205715-13.897143L512 774.546286l317.988571-141.312a27.428571 27.428571 0 0 1 22.308572 50.102857l-329.142857 146.285714a27.428571 27.428571 0 0 1-22.308572 0l-329.142857-146.285714a27.428571 27.428571 0 0 1-13.897143-36.205714z" fill="#1296db" p-id="3652"></path><path d="M157.805714 500.845714a27.428571 27.428571 0 0 1 36.205715-13.897143L512 628.260571l317.988571-141.312a27.428571 27.428571 0 0 1 22.308572 50.102858l-329.142857 146.285714a27.428571 27.428571 0 0 1-22.308572 0l-329.142857-146.285714a27.428571 27.428571 0 0 1-13.897143-36.205715z" fill="#1296db" p-id="3653"></path><path d="M500.845714 194.377143a27.428571 27.428571 0 0 1 22.308572 0l329.142857 146.285714a27.428571 27.428571 0 0 1 0 50.102857l-329.142857 146.285715a27.428571 27.428571 0 0 1-22.308572 0l-329.142857-146.285715a27.428571 27.428571 0 0 1 0-50.102857l329.142857-146.285714zM250.404571 365.714286L512 482.011429 773.595429 365.714286 512 249.417143 250.404571 365.714286z" fill="#1296db" p-id="3654"></path></svg>